# xmcd
#
# Track frame offsets: 
#        150
#        17108
#        45952
#        60510
#        83835
#        105849
#        124916
#        154753
#        176293
#        199738
#
# Disc length: 2933 seconds
#
# Revision: 0
# Processed by: cddbd v1.5.2PL0 Copyright (c) Steve Scherf et al.
# Submitted via: ExactAudioCopy v1.2
#
DISCID=6e0b730a
DTITLE=Walter "Wolfman" Washington - My Future Is My Past
DYEAR=2018
DGENRE=Blues
TTITLE0=Lost Mind
TTITLE1=Even Now (feat. Irma Thomas)
TTITLE2=What a Diff'rence a Day Makes
TTITLE3=Save Your Love for Me
TTITLE4=I Don't Want to Be a Lone Ranger
TTITLE5=Steal Away
TTITLE6=She's Everything to Me
TTITLE7=I Cried My Last Tear
TTITLE8=I Just Dropped by to Say Hello
TTITLE9=Are You the Lady
EXTD=
EXTT0=
EXTT1=
EXTT2=
EXTT3=
EXTT4=
EXTT5=
EXTT6=
EXTT7=
EXTT8=
EXTT9=
PLAYORDER=
